# xmcd CD database file
#
# Track frame offsets:
#	150
#	16380
#	32225
#	56750
#	82020
#
# Disc length: 1330 seconds
#
# Revision: 0
# Processed by: cddbd v1.4PL0 Copyright (c) Steve Scherf et al.
# Submitted via: CDex 1.50Beta3
#
DISCID=3b053005
DTITLE=28 Days - Here we go
DYEAR=2000
DGENRE=New Age
TTITLE0=Sucker
TTITLE1=Goodbye
TTITLE2=Kool (Be yourself mix)
TTITLE3=The right place (The frank stoner mix)
TTITLE4=Never give up (The randywong mix)
EXTD=YEAR: 2000
EXTT0=
EXTT1=
EXTT2=
EXTT3=
EXTT4=
PLAYORDER=
